<mxfile host="app.diagrams.net" modified="2023-08-06T11:06:54.512Z" agent="Mozilla/5.0 (X11; Linux x86_64; rv:109.0) Gecko/20100101 Firefox/115.0" version="21.6.5" etag="dCusSs-hiHU5i99RggTj" type="github">
  <diagram name="Page-1" id="8TpMrxmVrKdtjtD65pUd">
    <mxGraphModel>
      <root>
        <mxCell id="0" />
        <mxCell id="1" parent="0" />
      </root>
    </mxGraphModel>
  </diagram>
</mxfile>
